<svg width="50" height="50" viewBox="0 0 50 50" fill="none" xmlns="http://www.w3.org/2000/svg">
<g clip-path="url(#clip0_124_445)">
<path d="M44.6459 31.9479C43.2082 36.0093 40.5471 39.5252 37.0289 42.0118C33.5107 44.4984 29.3083 45.8335 25 45.8334C15.9313 45.8334 8.21461 40.0375 5.35419 31.9479C11.2596 35.5884 18.0627 37.511 25 37.5C32.2042 37.5 38.9334 35.4688 44.6459 31.9479ZM44.0125 16.4688C45.3622 19.4728 45.9778 22.7548 45.8084 26.0438C39.9054 30.7735 32.5641 33.3453 25 33.3334C17.1292 33.3334 9.89586 30.6042 4.19169 26.0417C4.02263 22.7535 4.63818 19.4722 5.98753 16.4688C11.4385 20.6598 18.1242 22.9272 25 22.9167C32.1542 22.9167 38.7459 20.5125 44.0125 16.4688ZM25 4.16669C28.3032 4.16456 31.5595 4.94869 34.4996 6.45426C37.4398 7.95983 39.9793 10.1436 41.9084 12.825C37.1121 16.6692 31.1467 18.7596 25 18.75C18.6042 18.75 12.725 16.5334 8.09169 12.825C10.0204 10.1432 12.5598 7.95918 15.5001 6.45357C18.4403 4.94796 21.6967 4.16405 25 4.16669Z" fill="#2EC866"/>
</g>
<defs>
<clipPath id="clip0_124_445">
<rect width="50" height="50" fill="white"/>
</clipPath>
</defs>
</svg>
